# xmcd
#
# Track frame offsets:
#	150
#	27412
#	56700
#	79475
#	101325
#	128612
#	149262
#	180387
#	213125
#	231450
#	253337
#	273175
#
# Disc length: 4071 seconds
#
# Revision: 1
# Processed by: cddbd v1.5.2PL0 Copyright (c) Steve Scherf et al.
# Submitted via: EZCDAudioConverter 8.0.2.1
#
DISCID=a90fe50c
DTITLE=Various Artist - Những Tình Khúc Bất Tử
DYEAR=1992
DGENRE=
TTITLE0=Ngọc Lan - Nắng xuân
TTITLE1=Lệ Thu - Tình như bóng ma
TTITLE2=Elvis Phương - Tình là hung ác
TTITLE3=Kiều Nga - Dòng sông quê tôi
TTITLE4=Lưu Hồng - Ru em qua đời
TTITLE5=Ngọc Lan - Tình nghèo
TTITLE6=Elvis Phương - Vĩnh biệt tình ta
TTITLE7=Kiều Nga - Nắng thu
TTITLE8=Ngọc Lan - Tình đã tàn rồi
TTITLE9=Lệ Thu - Tuổi xưa quê nhà
TTITLE10=Lưu Hồng - Nguoiwff đi trong đêm
TTITLE11=Elvis Phương - Về nơi đất hứa
EXTD=
EXTT0=
EXTT1=
EXTT2=
EXTT3=
EXTT4=
EXTT5=
EXTT6=
EXTT7=
EXTT8=
EXTT9=
EXTT10=
EXTT11=
PLAYORDER=
